<svg xmlns="http://www.w3.org/2000/svg" xml:space="preserve" width="800" height="800" viewBox="0 0 29.663 23.889"><path d="m29.228 15.225-4.07-2.152-7.944 4.199a5.1 5.1 0 0 1-2.381.594 5.1 5.1 0 0 1-2.377-.592l-7.948-4.201-4.071 2.152c-.269.142-.437.425-.437.736s.168.594.436.734l12.906 6.822a3.19 3.19 0 0 0 2.982 0l12.903-6.822c.268-.141.436-.424.436-.734s-.168-.594-.435-.736"/><path d="m.436 8.665 12.906 6.822a3.18 3.18 0 0 0 2.982-.002l12.903-6.82a.83.83 0 0 0 .436-.735.82.82 0 0 0-.436-.735L16.325.372a3.18 3.18 0 0 0-2.984 0L.436 7.194A.83.83 0 0 0 0 7.929c0 .31.168.594.436.736m14.395-3.498c3.256 0 5.895 1.236 5.895 2.761s-2.639 2.761-5.895 2.761-5.894-1.236-5.894-2.761 2.638-2.761 5.894-2.761"/></svg>