<svg xmlns="http://www.w3.org/2000/svg" width="600" height="600" viewBox="0 0 600 600"><g style="stroke-width:1.05103"><g style="stroke-width:50.6951"><path d="M169.066-1.898C96.495-2.195 31.246 46.742 6.893 118.97a28.95 28.95 0 0 0 18.183 36.681 28.95 28.95 0 0 0 36.682-18.183c18.156-53.848 65.91-85.806 116.431-81.004 50.523 4.802 93.162 45.878 102.477 102.578a28.95 28.95 0 0 0 33.26 23.875 28.95 28.95 0 0 0 23.875-33.26C324.57 69.128 261.962 6.268 183.67-1.174a161 161 0 0 0-14.604-.724" style="color:#000;fill:#000;stroke-linecap:round;stroke-linejoin:round;-inkscape-stroke:none;paint-order:stroke fill markers" transform="matrix(1.43638 0 0 1.3274 77.374 2.521)"/><path d="M-3.576 75.594a28.97 28.97 0 0 0-24.287 33.06l12.892 83.504a28.971 28.971 0 0 0 48.686 16.483l58.02-55.67a28.97 28.97 0 0 0-9.471-47.867L11.35 77.268a28.97 28.97 0 0 0-14.926-1.674" style="color:#000;fill:#000;stroke-linecap:round;stroke-linejoin:round;-inkscape-stroke:none" transform="matrix(1.43638 0 0 1.3274 77.374 2.521)"/><g style="stroke-width:53.383"><path d="M186.215 1.406c-76.44-.312-145.179 51.18-170.842 127.213a30.485 30.485 0 0 0 19.135 38.633 30.485 30.485 0 0 0 38.633-19.135c19.124-56.659 69.441-90.31 122.691-85.254 53.25 5.057 98.166 48.296 107.977 107.953a30.485 30.485 0 0 0 35.027 25.135 30.485 30.485 0 0 0 25.133-35.027C350.027 76.15 284.059 9.996 201.596 2.166a170 170 0 0 0-15.381-.76" style="color:#000;fill:#000;stroke-linecap:round;stroke-linejoin:round;-inkscape-stroke:none;paint-order:stroke fill markers" transform="matrix(-1.36336 0 0 -1.2612 533.66 601.77)"/><path d="M7.502 82.652a30.507 30.507 0 0 0-28.748 35.13l13.584 87.888a30.507 30.507 0 0 0 51.254 17.361l61.127-58.592a30.507 30.507 0 0 0-9.973-50.42l-74.71-29.296a30.5 30.5 0 0 0-12.534-2.07" style="color:#000;fill:#000;stroke-linecap:round;stroke-linejoin:round;-inkscape-stroke:none" transform="matrix(-1.36336 0 0 -1.2612 533.66 601.77)"/></g></g></g></svg>